<?xml version="1.0" encoding="UTF-8"?>
<svg width="101px" height="65px" viewBox="0 0 101 65" version="1.1" xmlns="http://www.w3.org/2000/svg" xmlns:xlink="http://www.w3.org/1999/xlink">
    <!-- Generator: Sketch 53.2 (72643) - https://sketchapp.com -->
    <title>Group 360</title>
    <desc>Created with Sketch.</desc>
    <g id="Page-1" stroke="none" stroke-width="1" fill="none" fill-rule="evenodd">
        <g id="Mobile" transform="translate(-139.000000, -49.000000)">
            <g id="Group-360" transform="translate(139.000000, 49.000000)">
                <g id="Group-3">
                    <polygon id="Fill-1" fill="#33C457" points="63.3072863 63.9166623 1.69270914 63.9166623 32.499998 2.30208463"></polygon>
                    <path d="M32.499998,4.60415432 L3.38541149,62.833329 L61.6145847,62.833329 L32.499998,4.60415432 L32.499998,4.60415432 Z M32.499998,-4.13258864e-06 L65,64.9999957 L-3.87430184e-06,64.9999957 L32.499998,-4.13258864e-06 Z" id="Fill-2" fill="#000000"></path>
                </g>
                <g id="Group-6" transform="translate(18.000000, 27.000000)">
                    <path d="M58.505403,36.916671 L2.49459317,36.916671 C1.88410497,36.916671 1.6303655,36.4271538 1.56714917,36.2771317 C1.5039123,36.12709 1.32914732,35.5998122 1.73471597,35.1136141 L29.7401218,1.54152372 C29.9357284,1.30706879 30.2055924,1.17793546 30.499998,1.17793546 C30.7944037,1.17793546 31.0642697,1.30706879 31.2598744,1.54152372 L59.2652779,35.1136141 C59.6708486,35.5998122 59.4960816,36.127116 59.4328673,36.2771317 C59.3696306,36.4271538 59.115891,36.916671 58.505403,36.916671 Z" id="Fill-4" fill="#2AE258"></path>
                    <path d="M30.499998,2.2612489 L2.49457284,35.8333333 C2.49457284,35.8333333 2.49457284,35.8333333 2.49457284,35.8333333 C2.49457284,35.8333333 2.49457284,35.8333333 2.49457284,35.8333333 L58.505407,35.8333333 C58.505407,35.8333333 58.505407,35.8333333 58.505407,35.8333333 C58.505407,35.8333333 58.505407,35.8333333 58.505407,35.8333333 L30.5028233,2.26155059 C30.5025402,2.26146381 30.5014815,2.26126957 30.499998,2.26126957 L30.499998,2.2612489 L30.499998,2.2612489 Z M30.499998,0.094598765 C31.0576573,0.094598765 31.6153144,0.336999885 32.0197333,0.821802147 L60.0251366,34.3938659 C61.190745,35.7911722 60.2598667,38.0000043 58.505403,38.0000043 L2.49457284,38.0000043 C0.740110723,38.0000043 -0.190749115,35.7911722 0.974858853,34.3938659 L28.9802629,0.821802147 C29.3846856,0.336999885 29.9423427,0.094598765 30.499998,0.094598765 Z" id="Fill-5" fill="#000000"></path>
                </g>
                <g id="Group-9" transform="translate(36.000000, 50.000000)">
                    <polygon id="Fill-7" fill="#14FF4E" points="60.1446869 13.9285714 4.85530947 13.9285714 32.499998 1.16948439"></polygon>
                    <path d="M32.499998,2.33896903 L9.71061995,12.8571429 L55.2893758,12.8571429 L32.499998,2.33896903 L32.499998,2.33896903 Z M32.499998,0 L65,15 L-3.87430185e-06,15 L32.499998,0 Z" id="Fill-8" fill="#000000"></path>
                </g>
            </g>
        </g>
    </g>
</svg>